<?xml version="1.0" encoding="utf-8"?>
<svg version="1.1" width="962.972px" height="961.362px" preserveAspectRatio="none" viewBox="0 0 962.972 961.362" xmlns="http://www.w3.org/2000/svg">
  <defs>
    <clipPath id="clippath0" transform="">
      <path d="M 0 961.362 L 962.972 961.362 L 962.972 0 L 0 0 Z" style="fill: none; clip-rule: nonzero;"/>
    </clipPath>
    <clipPath id="clippath1" transform="">
      <path d="M 863.843 625.615 C 881.445 579.385 890.37 530.622 890.37 480.682 L 890.37 480.682 C 890.37 299.766 774.001 142.851 600.799 90.216 L 600.799 90.216 L 620.026 26.955 C 821.274 88.112 956.486 270.451 956.486 480.682 L 956.486 480.682 C 956.486 538.692 946.108 595.369 925.636 649.141 L 925.636 649.141 Z" style="fill: none; clip-rule: nonzero;"/>
    </clipPath>
    <clipPath id="clippath2" transform="" style="clip-path: url(#clippath1);">
      <rect x="-32768" y="-32768" width="65535" height="65535" style="clip-rule: nonzero;"/>
    </clipPath>
    <linearGradient id="shading0" gradientUnits="userSpaceOnUse" x1="0" y1="0" x2="1" y2="0">
      <stop offset="0" style="stop-color: rgb(255, 255, 255);"/>
      <stop offset="0.1" style="stop-color: rgb(246, 246, 246);"/>
      <stop offset="0.2" style="stop-color: rgb(201, 201, 201);"/>
      <stop offset="0.3" style="stop-color: rgb(159, 159, 159);"/>
      <stop offset="0.4" style="stop-color: rgb(122, 122, 122);"/>
      <stop offset="0.5" style="stop-color: rgb(89, 89, 89);"/>
      <stop offset="0.6" style="stop-color: rgb(61, 61, 61);"/>
      <stop offset="0.7" style="stop-color: rgb(37, 37, 37);"/>
      <stop offset="0.8" style="stop-color: rgb(18, 18, 18);"/>
      <stop offset="0.9" style="stop-color: rgb(6, 6, 6);"/>
      <stop offset="1" style="stop-color: rgb(0, 0, 0);"/>
    </linearGradient>
    <linearGradient id="shading1" gradientUnits="userSpaceOnUse" x1="0" y1="0" x2="1" y2="0">
      <stop offset="0" style="stop-color: rgb(105, 211, 167);"/>
      <stop offset="0.1" style="stop-color: rgb(105, 211, 167);"/>
      <stop offset="0.2" style="stop-color: rgb(105, 211, 167);"/>
      <stop offset="0.3" style="stop-color: rgb(105, 211, 167);"/>
      <stop offset="0.4" style="stop-color: rgb(105, 211, 167);"/>
      <stop offset="0.5" style="stop-color: rgb(105, 211, 167);"/>
      <stop offset="0.6" style="stop-color: rgb(105, 211, 167);"/>
      <stop offset="0.7" style="stop-color: rgb(105, 211, 167);"/>
      <stop offset="0.8" style="stop-color: rgb(105, 211, 167);"/>
      <stop offset="0.9" style="stop-color: rgb(105, 211, 167);"/>
      <stop offset="1" style="stop-color: rgb(105, 211, 167);"/>
    </linearGradient>
    <clipPath id="clippath3" transform="">
      <path d="M 0 961.362 L 962.972 961.362 L 962.972 0 L 0 0 Z" style="fill: none; clip-rule: nonzero;"/>
    </clipPath>
    <clipPath id="clippath4" transform="">
      <path d="M 6.486 480.682 C 6.486 423.13 16.708 366.867 36.868 313.453 L 36.868 313.453 L 98.729 336.802 C 81.393 382.727 72.602 431.134 72.602 480.682 L 72.602 480.682 C 72.602 691.51 230.859 866.09 440.723 886.772 L 440.723 886.772 L 434.237 952.573 C 190.379 928.54 6.486 725.672 6.486 480.682" style="fill: none; clip-rule: nonzero;"/>
    </clipPath>
    <linearGradient id="shading2" gradientUnits="userSpaceOnUse" x1="0" y1="0" x2="1" y2="0">
      <stop offset="0" style="stop-color: rgb(105, 211, 167);"/>
      <stop offset="0.1" style="stop-color: rgb(98, 208, 163);"/>
      <stop offset="0.2" style="stop-color: rgb(91, 204, 160);"/>
      <stop offset="0.3" style="stop-color: rgb(83, 200, 156);"/>
      <stop offset="0.4" style="stop-color: rgb(75, 197, 152);"/>
      <stop offset="0.5" style="stop-color: rgb(68, 193, 148);"/>
      <stop offset="0.6" style="stop-color: rgb(60, 189, 144);"/>
      <stop offset="0.7" style="stop-color: rgb(52, 186, 139);"/>
      <stop offset="0.8" style="stop-color: rgb(44, 182, 135);"/>
      <stop offset="0.9" style="stop-color: rgb(36, 178, 131);"/>
      <stop offset="1" style="stop-color: rgb(28, 174, 127);"/>
    </linearGradient>
    <clipPath id="clippath5" transform="">
      <path d="M 0 961.362 L 962.972 961.362 L 962.972 0 L 0 0 Z" style="fill: none; clip-rule: nonzero;"/>
    </clipPath>
    <clipPath id="clippath6" transform="">
      <path d="M 24.802 349.827 C 82.802 147.704 270.508 6.529 481.294 6.475 L 481.294 6.475 L 481.309 6.475 L 481.414 6.475 L 481.414 6.479 C 488.03 6.479 494.62 6.612 501.176 6.882 L 501.176 6.882 C 535.125 8.279 565.423 29.581 578.348 61.097 L 578.348 61.097 L 597.191 106.822 L 531.098 119.975 L 517.195 86.239 C 514.021 78.498 506.668 73.284 498.462 72.945 L 498.462 72.945 C 492.803 72.713 487.115 72.595 481.401 72.595 L 481.401 72.595 C 299.9 72.599 138.273 194.098 88.353 368.066 L 88.353 368.066 Z" style="fill: none; clip-rule: nonzero;"/>
    </clipPath>
    <linearGradient id="shading3" gradientUnits="userSpaceOnUse" x1="0" y1="0" x2="1" y2="0">
      <stop offset="0" style="stop-color: rgb(28, 174, 127);"/>
      <stop offset="0.1" style="stop-color: rgb(28, 172, 126);"/>
      <stop offset="0.2" style="stop-color: rgb(28, 157, 117);"/>
      <stop offset="0.3" style="stop-color: rgb(28, 137, 106);"/>
      <stop offset="0.4" style="stop-color: rgb(28, 114, 93);"/>
      <stop offset="0.5" style="stop-color: rgb(27, 90, 80);"/>
      <stop offset="0.6" style="stop-color: rgb(27, 63, 65);"/>
      <stop offset="0.7" style="stop-color: rgb(27, 35, 49);"/>
      <stop offset="0.8" style="stop-color: rgb(27, 30, 46);"/>
      <stop offset="0.9" style="stop-color: rgb(27, 30, 46);"/>
      <stop offset="1" style="stop-color: rgb(27, 30, 46);"/>
    </linearGradient>
  </defs>
  <g transform="matrix(1 0 0 -1 0 961.362)">
    <g transform="">
      <path d="M 0 961.362 L 962.972 961.362 L 962.972 0 L 0 0 Z" style="fill: none;"/>
    </g>
    <g style="clip-path: url(#clippath0);">
      <g transform="translate(340.4334 578.5529)">
        <path d="M 0 0 C 38.36 0 69.567 -20.464 85.614 -56.147 L 86.859 -58.916 L 151.226 -37.022 L 149.877 -33.731 C 124.947 27.051 67.516 64.807 0 64.807 C -47.493 64.807 -86.081 49.598 -117.979 18.315 C -149.648 -12.745 -165.706 -51.85 -165.706 -97.912 C -165.706 -143.572 -149.648 -182.471 -117.979 -213.531 C -86.087 -244.814 -47.498 -260.023 0 -260.023 C 67.522 -260.023 124.947 -222.267 149.877 -161.49 L 151.226 -158.2 L 86.761 -136.272 L 85.565 -139.177 C 71.188 -174.273 39.203 -195.221 0 -195.221 C -26.697 -195.221 -49.277 -185.892 -67.114 -167.485 C -85.167 -148.838 -94.322 -125.432 -94.322 -97.912 C -94.322 -70.193 -85.407 -47.226 -67.114 -27.742 C -49.277 -9.329 -26.697 0 0 0" style="fill: rgb(27, 30, 46); fill-opacity: 1;"/>
      </g>
    </g>
    <g transform="">
      <path d="M 863.843 625.615 C 881.445 579.385 890.37 530.622 890.37 480.682 L 890.37 480.682 C 890.37 299.766 774.001 142.851 600.799 90.216 L 600.799 90.216 L 620.026 26.955 C 821.274 88.112 956.486 270.451 956.486 480.682 L 956.486 480.682 C 956.486 538.692 946.108 595.369 925.636 649.141 L 925.636 649.141 Z" style="fill: none;"/>
    </g>
    <g style="clip-path: url(#clippath2);">
      <g transform="matrix(-424.1213074 -274.6022034 -274.6022034 424.1213074 992.991272 477.6596375)">
        <rect x="-0.4704303127447296" y="-0.7612749622096723" width="2.6339518553005457" height="2.633008887564897" style="fill: url(#shading0);"/>
      </g>
    </g>
    <g style="clip-path: url(#clippath2);">
      <g transform="matrix(-424.1213074 -274.6022034 -274.6022034 424.1213074 992.991272 477.6596375)">
        <rect x="-0.4704303127447296" y="-0.7612749622096723" width="2.6339518553005457" height="2.633008887564897" style="fill: url(#shading1);"/>
      </g>
    </g>
    <g transform="">
      <path d="M 0 961.362 L 962.972 961.362 L 962.972 0 L 0 0 Z" style="fill: none;"/>
    </g>
    <g style="clip-path: url(#clippath3);">
      <g transform="translate(872.5433 600.2703)">
        <path d="M 0 0 C -52.898 172.559 -210.028 288.496 -390.994 288.496 C -415.585 288.496 -440.205 286.306 -464.174 281.985 L -475.904 347.054 C -448.075 352.072 -419.508 354.616 -390.994 354.616 C -180.788 354.616 1.743 219.895 63.216 19.38 Z" style="fill: rgb(105, 211, 167); fill-opacity: 1;"/>
      </g>
    </g>
    <g transform="">
      <path d="M 6.486 480.682 C 6.486 423.13 16.708 366.867 36.868 313.453 L 36.868 313.453 L 98.729 336.802 C 81.393 382.727 72.602 431.134 72.602 480.682 L 72.602 480.682 C 72.602 691.51 230.859 866.09 440.723 886.772 L 440.723 886.772 L 434.237 952.573 C 190.379 928.54 6.486 725.672 6.486 480.682" style="fill: none;"/>
    </g>
    <g style="clip-path: url(#clippath4);">
      <g transform="matrix(-266.447998 -565.1065063 -565.1065063 266.447998 323.3836975 948.96521)">
        <rect x="-0.4545334203351865" y="-1.5737191941878363" width="2.0491215079017207" height="2.0503533578854674" style="fill: url(#shading2);"/>
      </g>
    </g>
    <g transform="">
      <path d="M 0 961.362 L 962.972 961.362 L 962.972 0 L 0 0 Z" style="fill: none;"/>
    </g>
    <g style="clip-path: url(#clippath5);">
      <g transform="translate(743.7405 637.3666)">
        <path d="M 0 0 L -91.781 -232.418 L -184.152 0 L -259.712 0 L -130.153 -317.24 L -224.517 -546.206 L -158.424 -559.359 L 71.391 0 Z" style="fill: rgb(27, 30, 46); fill-opacity: 1;"/>
      </g>
    </g>
    <g transform="">
      <path d="M 24.802 349.827 C 82.802 147.704 270.508 6.529 481.294 6.475 L 481.294 6.475 L 481.309 6.475 L 481.414 6.475 L 481.414 6.479 C 488.03 6.479 494.62 6.612 501.176 6.882 L 501.176 6.882 C 535.125 8.279 565.423 29.581 578.348 61.097 L 578.348 61.097 L 597.191 106.822 L 531.098 119.975 L 517.195 86.239 C 514.021 78.498 506.668 73.284 498.462 72.945 L 498.462 72.945 C 492.803 72.713 487.115 72.595 481.401 72.595 L 481.401 72.595 C 299.9 72.599 138.273 194.098 88.353 368.066 L 88.353 368.066 Z" style="fill: none;"/>
    </g>
    <g style="clip-path: url(#clippath6);">
      <g transform="matrix(698.6652832 -219.2685242 -219.2685242 -698.6652832 5.8283834 263.5140076)">
        <rect x="-0.29295918124196463" y="-1.3006680395835934" width="1.647840325715252" height="1.6464009155971493" style="fill: url(#shading3);"/>
      </g>
    </g>
  </g>
</svg>